<svg width="32" height="32" xmlns="http://www.w3.org/2000/svg">

 <g>
  <title>background</title>
  <rect fill="none" id="canvas_background" height="402" width="582" y="-1" x="-1"/>
 </g>
 <g>
  <title>Layer 1</title>
  <path transform="rotate(180 16.659210205078125,15.999956130981447) " id="svg_1" fill="#C2C8CD" d="m23.8387,2.27597c0.2429,-0.25147 0.3773,-0.58827 0.3742,-0.93787c-0.003,-0.34959 -0.1432,-0.68401 -0.3904,-0.93122c-0.2472,-0.24721 -0.5817,-0.38743 -0.9313,-0.39047c-0.3495,-0.00304 -0.6863,0.13135 -0.9378,0.37423l-10.896,10.89596c-1.24983,1.2502 -1.95193,2.9456 -1.95193,4.7134c0,1.7677 0.7021,3.4631 1.95193,4.7133l10.896,10.896c0.2515,0.2429 0.5883,0.3773 0.9378,0.3742c0.3496,-0.003 0.6841,-0.1432 0.9313,-0.3904c0.2472,-0.2472 0.3874,-0.5817 0.3904,-0.9313c0.0031,-0.3496 -0.1313,-0.6864 -0.3742,-0.9378l-10.896,-10.896c-0.7499,-0.7501 -1.1711,-1.7674 -1.1711,-2.828c0,-1.0607 0.4212,-2.0779 1.1711,-2.828l10.896,-10.89603z"/>
 </g>
</svg>